<?xml version="1.0" encoding="utf-8"?>
<!-- Generator: Adobe Illustrator 27.8.1, SVG Export Plug-In . SVG Version: 6.00 Build 0)  -->
<svg version="1.1" id="Layer_1" xmlns="http://www.w3.org/2000/svg" xmlns:xlink="http://www.w3.org/1999/xlink" x="0px" y="0px"
	 viewBox="0 0 2908 2908" style="enable-background:new 0 0 2908 2908;" xml:space="preserve">
<style type="text/css">
	.st0{fill-rule:evenodd;clip-rule:evenodd;fill:#C8D1FA;}
	.st1{fill:#2C3C85;}
</style>
<g>
	<path class="st0" d="M0,484.7C0,217,217,0,484.7,0h1938.6C2691,0,2908,217,2908,484.7v1938.6c0,267.7-217,484.7-484.7,484.7H484.7
		C217,2908,0,2691,0,2423.3V484.7z"/>
</g>
<g>
	<path class="st1" d="M1472.7,2589.5c-270.4,0-484.6-75.4-642.6-226.1c-158-150.8-237.1-366.6-237.1-647.3V1192
		c0-280.8,79-496.5,237.1-647.3c158-150.8,372.2-226.2,642.6-226.2c268.2,0,475.7,73.3,622.3,219.9c146.7,146.6,220,347.9,220,603.7
		v18.7h-405.5v-31.2c0-128.9-35.9-235-107.6-318.2c-71.8-83.1-181.5-124.8-329.1-124.8c-145.6,0-260,44.7-343.1,134.1
		c-83.2,89.4-124.8,211.1-124.8,365v536.6c0,151.8,41.6,272.9,124.8,363.4c83.1,90.5,197.5,135.7,343.1,135.7
		c147.6,0,257.3-42.1,329.1-126.3c71.8-84.2,107.6-189.8,107.6-316.6v-56.1H2315v43.7c0,255.8-73.3,457-219.9,603.6
		C1948.4,2516.2,1741,2589.5,1472.7,2589.5z"/>
</g>
</svg>
